# xmcd
#
# Track frame offsets:
#	150
#	14292
#	37820
#	54890
#	70875
#	88537
#	99275
#	120942
#	133955
#	151332
#	165547
#	176880
#
# Disc length: 2526 seconds
#
# Revision: 1
# Processed by: cddbd v1.5.1PL0 Copyright (c) Steve Scherf et al.
# Submitted via: CDex 1.50Beta5
#
DISCID=8c09dc0c
DTITLE=SIMON AND GARFUNKEL - SUPER STARS HIT COLLECTION
DYEAR=1900
DGENRE=
TTITLE0=THE SOUNDS OF SILENCE
TTITLE1=ボクサー
TTITLE2=フランクロイドに捧げる歌
TTITLE3=アメリカ
TTITLE4=旧友
TTITLE5=冬の散歩道
TTITLE6=明日にかける橋
TTITLE7=CECILIA
TTITLE8=ミセス・ロビンソン
TTITLE9=EL CONDOR PASA
TTITLE10=HOMEWARD BOUND
TTITLE11=BYE BYE LOVE
EXTD=
EXTT0=
EXTT1=
EXTT2=
EXTT3=
EXTT4=
EXTT5=
EXTT6=
EXTT7=
EXTT8=
EXTT9=
EXTT10=
EXTT11=
PLAYORDER=
